<?xml version="1.0" encoding="UTF-8"?>
<!DOCTYPE svg PUBLIC "-//W3C//DTD SVG 1.1//EN" "http://www.w3.org/Graphics/SVG/1.1/DTD/svg11.dtd">
<svg xmlns="http://www.w3.org/2000/svg" version="1.1" width="64px" height="64px" style="shape-rendering:geometricPrecision; text-rendering:geometricPrecision; image-rendering:optimizeQuality; fill-rule:evenodd; clip-rule:evenodd" xmlns:xlink="http://www.w3.org/1999/xlink">
<g><path style="opacity:0.939" fill="#f8f7f6" d="M 59.5,28.5 C 56.8806,28.2317 54.3806,28.565 52,29.5C 52.6736,26.3814 52.5069,23.3814 51.5,20.5C 50.9049,17.6829 49.5716,15.3495 47.5,13.5C 46.5943,12.0351 45.261,11.0351 43.5,10.5C 39.6832,11.2025 35.8498,11.8692 32,12.5C 29.9057,11.3674 28.4057,12.0341 27.5,14.5C 27.1667,14.5 26.8333,14.5 26.5,14.5C 24.369,13.6862 22.0356,13.1862 19.5,13C 20.6956,12.3457 20.6956,11.8457 19.5,11.5C 15.2119,12.7917 12.2119,15.4584 10.5,19.5C 9.13022,21.2504 8.13022,23.2504 7.5,25.5C 6.56552,26.5676 6.23219,27.901 6.5,29.5C 5.5,29.5 4.5,29.5 3.5,29.5C -0.484105,6.82246 8.84923,-1.84421 31.5,3.5C 53.7973,-1.85148 63.1306,6.48186 59.5,28.5 Z"/></g>
<g><path style="opacity:1" fill="#e4d542" d="M 47.5,13.5 C 44.0588,14.0965 40.7254,14.7632 37.5,15.5C 34.0128,16.4671 30.6795,16.1337 27.5,14.5C 28.4057,12.0341 29.9057,11.3674 32,12.5C 35.8498,11.8692 39.6832,11.2025 43.5,10.5C 45.261,11.0351 46.5943,12.0351 47.5,13.5 Z"/></g>
<g><path style="opacity:1" fill="#519902" d="M 26.5,14.5 C 26.8333,14.5 27.1667,14.5 27.5,14.5C 30.6795,16.1337 34.0128,16.4671 37.5,15.5C 39.9501,17.6291 41.6167,20.2957 42.5,23.5C 36.7181,21.6441 30.7181,20.9774 24.5,21.5C 24.8782,19.079 25.5448,16.7457 26.5,14.5 Z"/></g>
<g><path style="opacity:1" fill="#f9db1e" d="M 47.5,13.5 C 49.5716,15.3495 50.9049,17.6829 51.5,20.5C 51.5107,24.4643 50.5107,28.131 48.5,31.5C 48.1667,31.5 47.8333,31.5 47.5,31.5C 47.5,30.8333 47.1667,30.5 46.5,30.5C 45.5,29.8333 44.5,29.1667 43.5,28.5C 43.634,26.7085 43.3007,25.0418 42.5,23.5C 41.6167,20.2957 39.9501,17.6291 37.5,15.5C 40.7254,14.7632 44.0588,14.0965 47.5,13.5 Z"/></g>
<g><path style="opacity:1" fill="#20aa1d" d="M 24.5,21.5 C 30.7181,20.9774 36.7181,21.6441 42.5,23.5C 43.3007,25.0418 43.634,26.7085 43.5,28.5C 40.8127,28.3359 38.146,28.5026 35.5,29C 34.5842,29.2784 33.9175,29.7784 33.5,30.5C 32.1667,31.1667 31.1667,32.1667 30.5,33.5C 30.1667,33.5 29.8333,33.5 29.5,33.5C 28.7281,32.3065 27.7281,31.3065 26.5,30.5C 25.0721,27.6967 24.4054,24.6967 24.5,21.5 Z"/></g>
<g><path style="opacity:1" fill="#42aaf8" d="M 26.5,14.5 C 25.5448,16.7457 24.8782,19.079 24.5,21.5C 24.4054,24.6967 25.0721,27.6967 26.5,30.5C 16.8039,33.1333 11.4706,29.4666 10.5,19.5C 12.2119,15.4584 15.2119,12.7917 19.5,11.5C 20.6956,11.8457 20.6956,12.3457 19.5,13C 22.0356,13.1862 24.369,13.6862 26.5,14.5 Z"/></g>
<g><path style="opacity:1" fill="#23bdf8" d="M 10.5,19.5 C 11.4706,29.4666 16.8039,33.1333 26.5,30.5C 27.7281,31.3065 28.7281,32.3065 29.5,33.5C 28.8333,35.1667 28.1667,36.8333 27.5,38.5C 24.7814,38.3975 22.1147,38.7308 19.5,39.5C 17.8247,39.8684 16.8247,40.8684 16.5,42.5C 16.1667,42.5 15.8333,42.5 15.5,42.5C 9.89821,38.2933 7.23154,32.6266 7.5,25.5C 8.13022,23.2504 9.13022,21.2504 10.5,19.5 Z"/></g>
<g><path style="opacity:0.945" fill="#eae9e9" d="M 51.5,20.5 C 52.5069,23.3814 52.6736,26.3814 52,29.5C 54.3806,28.565 56.8806,28.2317 59.5,28.5C 59.9408,37.2756 59.4408,45.9422 58,54.5C 56.4571,56.3783 54.6238,57.8783 52.5,59C 38.5,59.6667 24.5,59.6667 10.5,59C 8.37623,57.8783 6.5429,56.3783 5,54.5C 3.56187,46.2767 3.06187,37.9433 3.5,29.5C 4.5,29.5 5.5,29.5 6.5,29.5C 6.23219,27.901 6.56552,26.5676 7.5,25.5C 7.23154,32.6266 9.89821,38.2933 15.5,42.5C 15.1514,50.9863 19.1514,54.8197 27.5,54C 29.3237,53.34 30.657,52.1733 31.5,50.5C 31.8333,50.5 32.1667,50.5 32.5,50.5C 41.2921,54.5973 47.6254,52.2639 51.5,43.5C 52.1149,39.0088 51.1149,35.0088 48.5,31.5C 50.5107,28.131 51.5107,24.4643 51.5,20.5 Z"/></g>
<g><path style="opacity:1" fill="#fa1a7f" d="M 47.5,31.5 C 47.8333,31.5 48.1667,31.5 48.5,31.5C 51.1149,35.0088 52.1149,39.0088 51.5,43.5C 50.5,44.1667 49.5,44.8333 48.5,45.5C 43.5,45.5 38.5,45.5 33.5,45.5C 33.0948,43.3502 32.5948,41.3502 32,39.5C 34.8705,38.3068 37.7038,37.3068 40.5,36.5C 43.4001,35.5568 45.7334,33.8901 47.5,31.5 Z"/></g>
<g><path style="opacity:1" fill="#e52f55" d="M 33.5,30.5 C 37.7458,30.6287 42.0791,30.6287 46.5,30.5C 47.1667,30.5 47.5,30.8333 47.5,31.5C 45.7334,33.8901 43.4001,35.5568 40.5,36.5C 36.6215,36.9763 33.2882,35.9763 30.5,33.5C 31.1667,32.1667 32.1667,31.1667 33.5,30.5 Z"/></g>
<g><path style="opacity:1" fill="#f0b88e" d="M 43.5,28.5 C 44.5,29.1667 45.5,29.8333 46.5,30.5C 42.0791,30.6287 37.7458,30.6287 33.5,30.5C 33.9175,29.7784 34.5842,29.2784 35.5,29C 38.146,28.5026 40.8127,28.3359 43.5,28.5 Z"/></g>
<g><path style="opacity:1" fill="#6620cc" d="M 27.5,38.5 C 27.448,40.9029 27.7814,43.2362 28.5,45.5C 25.8127,45.6641 23.146,45.4974 20.5,45C 18.6803,44.7996 17.347,43.9663 16.5,42.5C 16.8247,40.8684 17.8247,39.8684 19.5,39.5C 22.1147,38.7308 24.7814,38.3975 27.5,38.5 Z"/></g>
<g><path style="opacity:1" fill="#c81776" d="M 29.5,33.5 C 29.8333,33.5 30.1667,33.5 30.5,33.5C 33.2882,35.9763 36.6215,36.9763 40.5,36.5C 37.7038,37.3068 34.8705,38.3068 32,39.5C 32.5948,41.3502 33.0948,43.3502 33.5,45.5C 33.4431,46.609 33.1098,47.609 32.5,48.5C 32.5,49.1667 32.5,49.8333 32.5,50.5C 32.1667,50.5 31.8333,50.5 31.5,50.5C 30.8897,48.5659 29.8897,46.8993 28.5,45.5C 27.7814,43.2362 27.448,40.9029 27.5,38.5C 28.1667,36.8333 28.8333,35.1667 29.5,33.5 Z"/></g>
<g><path style="opacity:1" fill="#fd5e65" d="M 33.5,45.5 C 38.5,45.5 43.5,45.5 48.5,45.5C 47.653,46.9663 46.3197,47.7996 44.5,48C 40.5138,48.4988 36.5138,48.6655 32.5,48.5C 33.1098,47.609 33.4431,46.609 33.5,45.5 Z"/></g>
<g><path style="opacity:1" fill="#a021d3" d="M 15.5,42.5 C 15.8333,42.5 16.1667,42.5 16.5,42.5C 17.347,43.9663 18.6803,44.7996 20.5,45C 23.146,45.4974 25.8127,45.6641 28.5,45.5C 29.8897,46.8993 30.8897,48.5659 31.5,50.5C 30.657,52.1733 29.3237,53.34 27.5,54C 19.1514,54.8197 15.1514,50.9863 15.5,42.5 Z"/></g>
<g><path style="opacity:1" fill="#fca362" d="M 51.5,43.5 C 47.6254,52.2639 41.2921,54.5973 32.5,50.5C 32.5,49.8333 32.5,49.1667 32.5,48.5C 36.5138,48.6655 40.5138,48.4988 44.5,48C 46.3197,47.7996 47.653,46.9663 48.5,45.5C 49.5,44.8333 50.5,44.1667 51.5,43.5 Z"/></g>
</svg>
